<svg width="58" height="68" viewBox="0 0 58 68" fill="none" xmlns="http://www.w3.org/2000/svg">
<path d="M9.52312 31.7475L8.04938 28.5469L4.44375 14.5294L3.52688 12.3469L4.84875 9.09562C4.84875 9.09562 6.72188 9.36 8.15063 10.9744C9.88875 12.9431 12.7238 18.8325 12.7238 18.8325L12.1275 14.1862L15.3619 5.79938C15.3619 5.79938 16.7794 5.6475 17.1562 6.03562C17.8256 6.72188 18.9675 11.5369 19.3725 13.0612C19.7775 14.5856 20.34 16.6669 21.0488 17.5781C21.7575 18.4894 22.6238 18.6975 22.6238 18.6975L25.1606 8.89875L25.7681 0.01125C25.7681 0.01125 26.6569 0.00562504 27.9 0.264375C28.8394 0.46125 29.4694 0.781875 29.7731 1.15875C30.0769 1.53563 30.0881 7.52625 30.0881 7.52625C30.0881 7.52625 35.4488 2.95875 35.6231 3.00938C35.9944 3.11063 37.1475 3.36375 37.755 4.0275C38.3625 4.68562 37.8562 7.12687 37.4006 8.7525C36.945 10.3781 35.37 15.66 35.37 15.66L36.7931 15.12L37.1081 15.4237L39.7575 11.3569C39.7575 11.3569 40.7138 11.3513 41.49 11.7338C42.3338 12.15 42.84 13.1737 42.84 13.1737L49.6463 3.32437C49.6463 3.32437 50.1638 3.78562 50.6194 4.24125C51.075 4.69688 51.3956 5.0175 51.4181 5.47875C51.4406 5.93438 49.7981 8.96625 49.0388 10.4906C48.2794 12.015 47.0081 15.0638 47.0081 15.0638L52.5431 10.8394C52.5431 10.8394 54.3769 11.0981 54.4331 11.7056C54.4837 12.3131 53.5106 13.4381 52.5431 15.1144C51.5756 16.7906 49.9556 20.0419 49.3931 21.1556C48.8306 22.2694 49.5956 22.3256 49.5956 22.3256L56.2275 18.135C56.2275 18.135 57.6563 18.4275 57.7913 19.0912C57.9431 19.8506 56.3006 21.3638 55.2319 22.5788C54.1631 23.7994 51.8794 26.7412 50.715 29.0306C49.5506 31.32 48.7688 32.7487 48.7688 32.7487L38.6719 42.7669L11.8069 41.1413L9.52312 31.7475Z" fill="url(#paint0_radial_7_187)"/>
<path d="M43.11 20.6887C42.435 20.8462 40.3031 24.5362 38.3119 30.15C37.1138 33.525 36.3206 37.215 36.3656 38.9812C36.4106 40.7475 39.0769 40.2075 39.0769 40.2075L40.2075 36.54C40.2075 36.54 41.4731 32.2369 42.9694 29.025C44.7188 25.2562 46.9856 22.86 46.8169 22.2806C46.5919 21.5044 44.0606 20.4637 43.11 20.6887ZM49.8094 11.0925C48.8644 11.6437 46.7325 15.21 46.0969 16.5712C45.4613 17.9325 45.4388 20.4919 46.1363 20.8237C46.9969 21.2287 47.9531 18.3375 49.4044 15.9356C50.8556 13.5337 52.5713 10.8169 52.5713 10.8169C52.5713 10.8169 50.895 10.4569 49.8094 11.0925ZM53.3869 18.1575C51.9413 18.7706 49.2469 21.645 48.3131 23.0906C46.5919 25.7625 45.3263 28.7494 44.8706 29.97C44.4206 31.1906 44.055 32.8669 45.4613 32.0962C46.8675 31.3256 48.6731 27.7031 50.985 24.4462C53.6625 20.6662 56.2388 18.1069 56.2388 18.1069C56.2388 18.1069 54.5625 17.6569 53.3869 18.1575ZM47.3175 2.03625C46.7606 1.96875 45.2363 6.01875 44.3756 7.965C43.515 9.91125 42.3675 12.4875 42.3675 12.4875C42.3675 12.4875 41.7038 17.6119 42.6544 17.7019C43.605 17.7919 45.4669 11.5425 46.8563 8.67937C48.2119 5.88937 49.6406 3.3075 49.6406 3.3075C49.6406 3.3075 48.4031 2.17125 47.3175 2.03625ZM37.305 12.1837C36.8044 12.7125 37.0856 15.435 37.0856 15.435C37.0856 15.435 39.0319 16.8862 39.3975 16.5656C39.7631 16.245 39.78 11.3287 39.78 11.3287C39.78 11.3287 38.1206 11.3231 37.305 12.1837ZM33.2831 15.8906C32.58 16.4812 33.0581 19.2487 32.8781 21.7294C32.6081 25.4419 31.5225 33.0469 31.2019 35.2687C30.8813 37.4906 30.5663 39.9319 30.5663 39.9319L34.0537 39.3862C34.0537 39.3862 35.4094 29.0194 35.955 25.0312C36.5006 21.0431 37.3106 15.39 36.7706 15.0694C36.225 14.76 34.1437 15.165 33.2831 15.8906ZM32.8612 2.66625C31.9725 2.835 30.0938 7.52625 30.0938 7.52625C30.0938 7.52625 29.9813 10.9125 29.9813 12.5437C29.9813 14.175 29.6663 16.1213 30.2063 16.1213C30.7463 16.1213 31.7925 12.9994 32.8781 10.2825C33.9638 7.56562 35.6288 3.00937 35.6288 3.00937C35.6288 3.00937 34.1212 2.43 32.8612 2.66625ZM22.6406 0.950625C22.0275 1.5975 23.0006 3.2625 23.0906 7.83C23.1806 12.4031 22.6181 18.6919 22.6181 18.6919C22.6181 18.6919 23.1019 18.6581 23.4056 19.5975C23.6644 20.3906 24.0863 25.2112 24.6263 25.0312C25.1719 24.8512 25.8469 21.6337 26.3925 16.2C26.9381 10.7662 26.7075 6.55875 26.5275 4.8375C26.3475 3.11625 25.7625 0 25.7625 0C25.7625 0 23.5462 0 22.6406 0.950625ZM15.3619 5.79938C15.3619 5.79938 12.7463 5.985 12.0263 7.39125C11.3006 8.7975 11.5313 9.47812 11.6663 10.8337C11.8013 12.1894 12.2288 14.895 12.2288 14.895C12.2288 14.895 14.6306 17.8819 15.9412 17.1562C17.2519 16.4362 15.3619 5.79938 15.3619 5.79938ZM4.84875 9.09562C4.84875 9.09562 3.3975 8.82562 2.53688 9.00562C1.67625 9.18562 1.72125 10.0012 2.13188 10.5469C2.53688 11.0925 4.41 14.4787 4.41 14.4787C4.41 14.4787 4.96688 14.49 5.6925 14.76C6.41813 15.03 7.66125 15.705 7.61062 14.6194C7.52062 12.7237 4.84875 9.09562 4.84875 9.09562ZM8.93813 30.4762C8.93813 30.4762 6.20438 24.9469 4.16813 21.9094C2.13188 18.8719 0 16.5206 0 16.0256C0 15.525 1.40625 15.03 2.21625 14.805C3.02625 14.58 4.43813 14.5294 4.43813 14.5294C4.43813 14.5294 7.785 20.1881 9.14625 23.2706C10.5075 26.3531 11.7731 29.9419 11.4581 30.3806C11.1713 30.7744 9.14063 30.51 8.93813 30.4762ZM10.7775 20.5987C10.5638 21.3919 11.5931 24.9919 12.2288 27.5737C12.8644 30.1556 13.635 32.8725 13.635 32.8725L15.8063 37.3106L18.2081 36.45C18.2081 36.45 16.9425 34.0031 16.2169 31.4719C15.4913 28.9294 14.5519 21.0431 13.5844 20.0137C12.9094 19.2881 10.9181 20.1037 10.7775 20.5987ZM18.2981 19.6931C17.73 20.0644 18.6131 26.0775 19.0688 28.5694C19.5244 31.0612 20.475 33.6881 20.97 34.9087C21.4706 36.1294 22.9163 39.2119 22.9163 39.2119C22.9163 39.2119 24.4125 40.9781 24.4575 40.7981C24.5025 40.6181 25.1381 38.3962 25.1381 38.3962C25.1381 38.3962 23.1413 32.5069 22.8206 29.97C22.5056 27.4331 22.005 19.7381 21.51 19.4681C21.015 19.1981 19.2038 19.1081 18.2981 19.6931ZM28.395 19.8281C27.7144 20.4581 27.0394 28.7944 26.7638 31.8712C26.4881 34.9481 26.2631 39.4762 26.2631 39.4762L29.295 39.2512C29.295 39.2512 30.4256 28.0687 30.6056 26.6175C30.7856 25.1662 31.6012 21.8644 31.1962 20.5481C30.7912 19.2431 28.98 19.2881 28.395 19.8281Z" fill="#FBDE93"/>
<path d="M8.03813 31.5056C7.84688 31.9388 13.7587 64.2881 13.8544 64.7719C13.95 65.2556 13.7587 65.6944 14.6756 66.1275C15.5981 66.5606 17.0381 66.7913 17.9606 66.8925C18.8831 66.9881 25.2337 66.9994 25.2844 66.2288C25.335 65.4525 44.3194 37.8 44.3194 37.8C44.3194 37.8 47.8181 31.9331 47.5762 31.4494C47.3344 30.9656 46.3894 31.1906 45.36 31.8938C44.3306 32.6025 43.38 34.3519 40.4888 36.2925C37.3556 38.3963 33.2044 38.8406 29.0306 38.79C25.1831 38.7394 20.61 38.0419 17.3362 35.6175C14.4562 33.48 13.6069 31.9388 11.0419 31.2581C8.78062 30.6563 8.03813 31.5056 8.03813 31.5056Z" fill="#FD703F"/>
<path d="M12.51 33.6206L17.8763 66.9038C17.8763 66.9038 24.2719 67.8262 29.2556 67.9219C34.245 68.0175 40.1906 66.9769 40.1906 66.9769L44.5106 52.3744L48.1781 33.1087C48.1781 33.1087 47.2725 32.2031 46.2544 32.9513C45.4725 33.525 43.0594 37.26 38.7956 38.9081C33.9862 40.7644 25.3181 40.8994 19.9069 38.6156C14.9456 36.5288 13.4325 33.8119 12.51 33.6206Z" fill="#FF2A23"/>
<path d="M43.3013 65.9531C42.21 66.6056 39.6675 67.0444 39.6675 67.0444C39.6675 67.0444 42.1875 54.7931 43.5881 48.3975C44.9887 42.0019 47.0081 31.185 47.0081 31.185C47.0081 31.185 47.8181 31.0556 48.6506 31.1569C49.5956 31.275 50.1581 31.5506 50.3494 31.8488C50.6588 32.3325 48.7969 41.3662 46.9744 50.1862C45.3094 58.2862 43.8806 65.61 43.3013 65.9531Z" fill="#DC0D25"/>
<defs>
<radialGradient id="paint0_radial_7_187" cx="0" cy="0" r="1" gradientUnits="userSpaceOnUse" gradientTransform="translate(27.4288 -10.1092) scale(49.7981 74.2892)">
<stop offset="0.447" stop-color="#FCC216"/>
<stop offset="0.59" stop-color="#FABB16"/>
<stop offset="0.794" stop-color="#F3A814"/>
<stop offset="0.921" stop-color="#ED9913"/>
</radialGradient>
</defs>
</svg>
