<svg width="72" height="72" viewBox="0 0 72 72" fill="none" xmlns="http://www.w3.org/2000/svg">
<path d="M6.85679 10.2488L35.1554 5.33339L65.3751 10.2488C68.1923 10.2488 69.9912 13.2398 68.6608 15.7114L39.4181 70.0419C38.0131 72.6519 34.2536 72.6529 32.8475 70.0434L3.57198 15.7129C2.24004 13.2412 4.03893 10.2488 6.85679 10.2488Z" fill="#FECB21"/>
<path d="M37.8621 43.46C37.8621 47.506 34.5669 50.7858 30.5024 50.7858C26.4378 50.7858 23.1426 47.506 23.1426 43.46C23.1426 39.414 26.4376 36.1342 30.5024 36.1342C34.5671 36.1342 37.8621 39.414 37.8621 43.46ZM47.2014 55.0276C43.6106 53.1315 39.1556 54.4921 37.2508 58.0662C35.346 61.6405 36.7128 66.0749 40.3035 67.9709L47.2014 55.0276ZM47.2014 19.6872C43.1367 19.6872 39.8416 22.9671 39.8416 27.0131C39.8416 31.0591 43.1367 34.3389 47.2014 34.3389C51.2661 34.3389 54.5611 31.0591 54.5611 27.0131C54.5611 22.9671 51.2661 19.6872 47.2014 19.6872ZM21.3792 14.9217C17.3145 14.9217 14.0194 18.2015 14.0194 22.2475C14.0194 26.2935 17.3145 29.5733 21.3792 29.5733C25.4439 29.5733 28.7389 26.2935 28.7389 22.2475C28.7389 18.2015 25.4439 14.9217 21.3792 14.9217Z" fill="#F43B22"/>
<path d="M5.38263 18.4228C3.49271 18.423 1.65951 17.4293 0.677113 15.6679C-0.764575 13.0838 0.171451 9.82569 2.76768 8.39078C7.6747 5.67864 12.9887 3.585 18.5619 2.16788C24.1395 0.749767 29.9255 0.0204587 35.7593 0.000415772C41.5706 -0.0193449 47.365 0.665361 52.9695 2.03618C58.685 3.43411 64.1434 5.53057 69.1933 8.26742C71.8014 9.68087 72.7644 12.9311 71.3444 15.5271C69.9244 18.1229 66.6589 19.0819 64.0511 17.6681C59.8131 15.3712 55.2213 13.6091 50.4034 12.4308C45.7174 11.2847 40.8745 10.7038 36.0063 10.7038L35.7963 10.704C30.8471 10.7211 25.9439 11.3384 21.2232 12.5387C16.5425 13.7288 12.0895 15.4817 7.98779 17.7487C7.19132 18.1908 6.29455 18.4228 5.38263 18.4228Z" fill="#C4790C"/>
</svg>
