<svg width="36" height="36" viewBox="0 0 36 36" fill="none" xmlns="http://www.w3.org/2000/svg">
<path d="M14.6253 29.2505C17.7374 29.2554 20.7693 28.2634 23.2767 26.42H23.2744C23.3419 26.51 23.4139 26.5955 23.4949 26.6787L32.1576 35.3414C32.5795 35.7636 33.1518 36.0009 33.7487 36.0011C34.3456 36.0013 34.9181 35.7644 35.3403 35.3425C35.7625 34.9206 35.9998 34.3483 36 33.7514C36.0002 33.1545 35.7633 32.582 35.3414 32.1598L26.6787 23.4972C26.5983 23.4158 26.5118 23.3405 26.42 23.2722C28.263 20.7662 29.2549 17.7359 29.2505 14.6253C29.2494 10.7468 27.7081 7.02747 24.9656 4.28496C22.2231 1.54245 18.5038 0.00119283 14.6253 0C10.7464 0 7.02641 1.54087 4.28364 4.28364C1.54087 7.02641 0 10.7464 0 14.6253C0 18.5041 1.54087 22.2241 4.28364 24.9669C7.02641 27.7097 10.7464 29.2505 14.6253 29.2505ZM14.6253 10.0847C18.3693 6.32036 27.7318 12.9062 14.6253 21.3754C1.51878 12.9062 10.8812 6.32261 14.6253 10.0847Z" fill="#A6A6A6"/>
</svg>
